<svg width="506" height="458" viewBox="0 0 506 458" fill="none" xmlns="http://www.w3.org/2000/svg">
   <clipPath id=”wave” clipPathUnits=”objectBoundingBox”>

<path d="M496.521 187.594C557.378 241.122 579.122 320.364 579.088 321.147L575.82 321.116C575.387 320.329 554.209 242.396 494.851 190.186C444.487 145.887 384.154 126.535 325.822 107.723C226.49 76.0028 132.992 46.1635 88.5871 -98.5053L92.022 -98.7336C135.763 43.3204 228.028 72.8872 325.827 104.071C384.459 123.147 445.258 142.503 496.521 187.594Z" fill="#573889"/>
<path d="M502.517 178.177C563.358 231.729 585.108 311.007 585.074 311.789L581.808 311.758C581.375 310.971 560.19 233.004 500.848 180.771C450.496 136.452 390.186 117.09 331.876 98.2696C232.581 66.5339 139.117 36.6803 94.7018 -108.052L98.1352 -108.281C141.719 34.0954 234.117 63.417 332.179 94.88C390.49 113.701 451.266 133.067 502.517 178.177Z" fill="#533385"/>
<path d="M508.523 168.839C569.365 222.391 590.817 301.404 591.082 302.451L587.816 302.42C587.383 301.633 566.197 223.665 506.853 171.433C456.501 127.115 396.192 107.755 337.881 88.9352C238.886 57.4653 145.122 27.3498 100.705 -117.383L104.138 -117.611C147.891 24.5054 240.122 54.0845 337.885 85.2817C396.662 104.106 457.272 123.73 508.523 168.839Z" fill="#4F2E82"/>
<path d="M514.534 159.502C575.375 213.054 597.126 292.331 597.092 293.113L593.826 293.082C593.393 292.295 572.207 214.328 512.864 162.096C462.513 117.777 402.203 98.4159 343.892 79.5959C244.597 47.8613 151.133 18.0087 106.717 -126.724L110.15 -126.952C153.903 15.1644 246.133 44.7443 343.896 75.9425C402.673 94.7669 463.283 114.392 514.534 159.502Z" fill="#4C297E"/>
<path d="M520.708 149.904C581.55 203.456 603.302 282.733 603.267 283.516L600.001 283.485C599.568 282.698 578.382 204.731 519.039 152.498C468.687 108.18 408.377 88.8197 350.066 70.0002C250.771 38.2665 157.307 8.41465 112.89 -136.318L116.323 -136.546C160.077 5.57032 252.308 35.1495 350.07 66.3467C408.68 85.43 469.457 104.795 520.708 149.904Z" fill="#452876"/>
<path d="M526.717 140.567C587.559 194.118 609.311 273.396 609.277 274.178L606.01 274.147C605.578 273.36 584.392 195.393 525.048 143.161C474.696 98.8423 414.386 79.4818 356.076 60.6622C257.08 29.1919 163.317 -0.923961 118.9 -145.656L122.333 -145.885C166.086 -3.76829 258.317 25.8111 356.079 57.0087C414.69 76.0922 475.466 95.4571 526.717 140.567Z" fill="#3F276E"/>
<path d="M532.727 131.229C593.569 184.781 615.32 264.058 615.286 264.841L612.019 264.81C611.587 264.023 590.401 186.056 531.058 133.823C480.706 89.5048 420.396 70.1442 362.085 51.3246C262.79 19.5906 169.326 -10.2615 124.909 -154.994L128.342 -155.222C172.095 -13.1059 264.326 16.4736 362.089 47.6712C420.866 66.4953 481.476 86.1196 532.727 131.229Z" fill="#392666"/>
<path d="M538.736 121.891C599.578 175.443 621.329 254.72 621.295 255.503L618.029 255.472C617.596 254.685 596.41 176.718 537.067 124.485C486.715 80.1668 426.405 60.8063 368.094 41.9866C268.799 10.2526 175.335 -19.5995 130.918 -164.332L134.352 -164.56C178.104 -22.4438 270.335 7.13561 368.098 38.3332C426.875 57.1573 487.485 76.7816 538.736 121.891Z" fill="#33245F"/>
<path d="M544.911 112.294C605.753 165.846 627.505 245.123 627.47 245.905L624.037 246.134C623.605 245.347 602.418 167.38 543.075 115.147C492.723 70.8292 432.413 51.4689 374.102 32.6494C274.807 0.915774 181.343 -28.936 136.926 -173.668L140.359 -173.897C184.113 -31.7803 276.344 -2.20122 374.106 28.996C432.883 47.8199 493.66 67.1846 544.911 112.294Z" fill="#2D2357"/>
<path d="M550.92 102.957C611.762 156.508 633.514 235.785 633.48 236.568L630.213 236.537C629.781 235.75 608.594 157.783 549.251 105.55C498.899 61.2321 438.589 41.8719 380.278 23.0525C280.983 -8.68117 187.519 -38.5329 143.102 -183.265L146.535 -183.494C190.289 -41.3772 282.52 -11.7982 380.282 19.399C438.892 38.4823 499.669 57.8469 550.92 102.957Z" fill="#272150"/>
<path d="M433.073 278.047C493.93 331.575 515.674 410.817 515.639 411.6L512.372 411.569C511.939 410.782 490.761 332.849 431.403 280.639C381.038 236.34 320.706 216.988 262.374 198.176C163.042 166.456 69.5434 136.616 25.1388 -8.05228L28.5737 -8.28063C72.3147 133.773 164.58 163.34 262.378 194.525C321.01 213.6 381.81 232.956 433.073 278.047Z" fill="#573889"/>
<path d="M439.069 268.63C499.91 322.182 521.66 401.46 521.626 402.242L518.36 402.211C517.927 401.424 496.742 323.457 437.399 271.224C387.048 226.905 326.738 207.543 268.427 188.723C169.133 156.987 75.6686 127.133 31.2537 -17.5993L34.6871 -17.8277C78.2711 124.548 170.669 153.87 268.731 185.333C327.042 204.154 387.818 223.519 439.069 268.63Z" fill="#533385"/>
<path d="M445.074 259.292C505.916 312.844 527.368 391.857 527.634 392.903L524.368 392.873C523.935 392.086 502.749 314.118 443.405 261.886C393.053 217.568 332.743 198.208 274.433 179.388C175.437 147.918 81.6737 117.803 37.2563 -26.9296L40.6897 -27.1581C84.4431 114.958 176.674 144.537 274.436 175.735C333.214 194.559 393.823 214.183 445.074 259.292Z" fill="#4F2E82"/>
<path d="M451.085 249.955C511.927 303.506 533.678 382.784 533.644 383.566L530.377 383.535C529.945 382.748 508.759 304.781 449.416 252.548C399.064 208.23 338.754 188.869 280.444 170.049C181.149 138.314 87.6848 108.462 43.2687 -36.2708L46.702 -36.4992C90.4543 105.617 182.685 135.197 280.448 166.395C339.225 185.22 399.834 204.845 451.085 249.955Z" fill="#4C297E"/>
<path d="M457.26 240.357C518.102 293.909 539.853 373.186 539.819 373.969L536.553 373.938C536.12 373.151 514.934 295.184 455.59 242.951C405.239 198.633 344.929 179.273 286.618 160.453C187.323 128.719 93.8589 98.8676 49.4416 -45.8647L52.875 -46.0932C96.6283 96.0232 188.859 125.602 286.622 156.8C345.232 175.883 406.009 195.248 457.26 240.357Z" fill="#452876"/>
<path d="M463.269 231.02C524.111 284.571 545.863 363.849 545.829 364.631L542.562 364.6C542.13 363.813 520.943 285.846 461.6 233.614C411.248 189.295 350.938 169.935 292.628 151.115C193.632 119.645 99.8686 89.529 55.4517 -55.2034L58.8851 -55.4318C102.638 86.6846 194.869 116.264 292.631 147.462C351.242 166.545 412.018 185.91 463.269 231.02Z" fill="#3F276E"/>
<path d="M469.278 221.682C530.12 275.234 551.872 354.511 551.838 355.294L548.571 355.263C548.139 354.476 526.953 276.509 467.609 224.276C417.257 179.958 356.947 160.597 298.637 141.778C199.342 110.043 105.878 80.1914 61.4609 -64.5409L64.8942 -64.7694C108.647 77.3471 200.878 106.927 298.64 138.124C357.418 156.948 418.027 176.572 469.278 221.682Z" fill="#392666"/>
<path d="M475.287 212.344C536.129 265.896 557.881 345.173 557.847 345.956L554.58 345.925C554.148 345.138 532.962 267.171 473.618 214.938C423.266 170.62 362.956 151.259 304.646 132.44C205.351 100.706 111.887 70.8534 67.4699 -73.8789L70.9033 -74.1074C114.656 68.0091 206.887 97.5885 304.65 128.786C363.427 147.61 424.036 167.235 475.287 212.344Z" fill="#33245F"/>
<path d="M481.463 202.747C542.305 256.298 564.056 335.576 564.022 336.358L560.589 336.587C560.156 335.8 538.97 257.833 479.627 205.6C429.275 161.282 368.965 141.922 310.654 123.102C211.359 91.3687 117.895 61.517 73.4776 -83.2153L76.911 -83.4438C120.664 58.6726 212.895 88.2517 310.658 119.449C369.435 138.273 430.212 157.637 481.463 202.747Z" fill="#2D2357"/>
<path d="M487.472 193.41C548.314 246.961 570.065 326.238 570.031 327.021L566.765 326.99C566.332 326.203 545.146 248.236 485.803 196.003C435.451 151.685 375.141 132.325 316.83 113.505C217.535 81.7717 124.071 51.92 79.6536 -92.8123L83.0869 -93.0408C126.84 49.0757 219.071 78.6547 316.834 109.852C375.444 128.935 436.221 148.3 487.472 193.41Z" fill="#272150"/>
<path d="M557.073 93.2882C617.93 146.816 639.674 226.059 639.64 226.841L636.372 226.81C635.939 226.023 614.761 148.091 555.403 95.8808C505.039 51.5816 444.706 32.2294 386.374 13.4178C287.042 -18.3027 193.544 -48.1421 149.139 -192.811L152.574 -193.039C196.315 -50.9851 288.58 -21.4183 386.379 9.76596C445.011 28.8413 505.81 48.1979 557.073 93.2882Z" fill="#573889"/>
<path d="M563.069 83.8716C623.91 137.424 645.66 216.701 645.626 217.484L642.36 217.453C641.927 216.666 620.742 138.699 561.4 86.4653C511.048 42.1462 450.738 22.7847 392.428 3.96406C293.133 -27.7716 199.669 -57.6253 155.254 -202.358L158.687 -202.586C202.271 -60.2102 294.669 -30.8886 392.731 0.574452C451.042 19.3951 511.818 38.761 563.069 83.8716Z" fill="#533385"/>
<path d="M569.075 74.5338C629.917 128.085 651.369 207.099 651.634 208.145L648.368 208.114C647.935 207.327 626.749 129.36 567.405 77.1276C517.053 32.8093 456.743 13.4491 398.433 -5.37039C299.437 -36.8403 205.674 -66.9558 161.256 -211.688L164.69 -211.917C208.443 -69.8001 300.674 -40.221 398.436 -9.02382C457.214 9.80005 517.823 29.4241 569.075 74.5338Z" fill="#4F2E82"/>
<path d="M575.086 65.1962C635.927 118.748 657.678 198.025 657.644 198.808L654.378 198.777C653.945 197.99 632.759 120.023 573.416 67.79C523.065 23.4713 462.755 4.1104 404.444 -14.7096C305.149 -46.4442 211.685 -76.2969 167.269 -221.029L170.702 -221.258C214.455 -79.1412 306.685 -49.5612 404.448 -18.363C463.225 0.461403 523.835 20.0861 575.086 65.1962Z" fill="#4C297E"/>
<path d="M581.26 55.5989C642.102 109.15 663.854 188.428 663.819 189.21L660.553 189.179C660.12 188.392 638.934 110.425 579.591 58.1927C529.239 13.8744 468.929 -5.48589 410.618 -24.3054C311.323 -56.0391 217.859 -85.8909 173.442 -230.623L176.875 -230.852C220.629 -88.7352 312.86 -59.1561 410.622 -27.9588C469.232 -8.87552 530.009 10.4892 581.26 55.5989Z" fill="#452876"/>
<path d="M587.269 46.2615C648.111 99.8129 669.863 179.09 669.829 179.873L666.562 179.842C666.13 179.055 644.944 101.088 585.6 48.8553C535.248 4.53679 474.938 -14.8237 416.628 -33.6434C317.632 -65.1136 223.869 -95.2295 179.452 -239.962L182.885 -240.19C226.638 -98.0738 318.869 -68.4944 416.631 -37.2968C475.242 -18.2133 536.018 1.15158 587.269 46.2615Z" fill="#3F276E"/>
<path d="M593.279 36.9239C654.121 90.4754 675.872 169.753 675.838 170.535L672.571 170.504C672.139 169.717 650.953 91.7502 591.61 39.5177C541.258 -4.80078 480.948 -24.1613 422.637 -42.9809C323.342 -74.715 229.878 -104.567 185.461 -249.299L188.894 -249.528C232.647 -107.411 324.878 -77.832 422.641 -46.6344C481.418 -27.8103 542.028 -8.18598 593.279 36.9239Z" fill="#392666"/>
<path d="M599.288 27.5859C660.13 81.1374 681.881 160.415 681.847 161.197L678.581 161.166C678.148 160.379 656.962 82.4122 597.619 30.1797C547.267 -14.1387 486.957 -33.4993 428.646 -52.3189C329.351 -84.0529 235.887 -113.905 191.47 -258.637L194.904 -258.866C238.656 -116.749 330.887 -87.1699 428.65 -55.9723C487.427 -37.1482 548.037 -17.524 599.288 27.5859Z" fill="#33245F"/>
<path d="M605.463 17.9887C666.305 71.54 688.057 150.817 688.022 151.6L684.589 151.828C684.157 151.041 662.97 73.0742 603.627 20.8419C553.275 -23.4764 492.965 -42.8366 434.654 -61.6561C335.359 -93.3898 241.895 -123.242 197.478 -267.974L200.911 -268.202C244.665 -126.086 336.896 -96.5068 434.658 -65.3095C493.435 -46.4857 554.212 -27.121 605.463 17.9887Z" fill="#2D2357"/>
<path d="M611.472 8.65109C672.314 62.2024 694.066 141.48 694.032 142.262L690.765 142.231C690.333 141.444 669.146 63.4772 609.803 11.2449C559.451 -33.0734 499.141 -52.4336 440.83 -71.2531C341.535 -102.987 248.071 -132.838 203.654 -277.571L207.087 -277.799C250.841 -135.683 343.072 -106.104 440.834 -74.9065C499.444 -55.8233 560.221 -36.4586 611.472 8.65109Z" fill="#272150"/>

   </clipPath>

</svg>
